<svg width="955" height="632" xmlns="http://www.w3.org/2000/svg" xmlns:xlink="http://www.w3.org/1999/xlink" xml:space="preserve" overflow="hidden"><g transform="translate(-1242 -1118)"><g><g><g><path d="M73.9062 175.312C61.566 175.312 51.5625 185.316 51.5625 197.656 51.5625 209.997 61.566 220 73.9062 220 86.2465 220 96.25 209.997 96.25 197.656 96.25 185.316 86.2465 175.312 73.9062 175.312Z" stroke="#FFFFFF" stroke-width="3.4375" fill="#FFFFFF" transform="matrix(1 0 0 1.21515 1606 1118)"/><path d="M318.697 176.11C317.165 174.951 315.715 173.687 314.356 172.329 309.289 166.55 301.125 157.455 292.188 153.185 268.259 141.742 230.312 138.823 230.312 138.823 211.371 127.063 191.612 116.674 171.188 107.735 168.863 106.747 166.165 107.454 164.622 109.453 162.775 111.962 163.311 115.493 165.82 117.34 166.085 117.536 166.368 117.708 166.664 117.855 175.569 122.776 184.194 128.187 192.5 134.062L185.477 134.062C181.762 134.062 178.75 137.074 178.75 140.79L139.023 140.79C138.215 140.791 137.409 140.714 136.617 140.559L134.062 140.061 134.062 127.555C134.139 124.101 131.729 121.089 128.342 120.405 124.599 119.767 121.048 122.285 120.41 126.028 120.345 126.411 120.312 126.799 120.312 127.188L120.312 137.397 103.125 134.062 86.7797 131.337C82.6729 130.646 78.4719 130.751 74.4047 131.646 70.8709 132.433 67.265 133.468 65.2988 134.052 52.9478 137.799 21.89 148.61 12.9903 154.677 6.27688 159.256 10.1853 186.134 10.1853 186.134L6.875 190.303 6.78219 193.074C6.65198 196.974 9.27238 200.432 13.0625 201.362L16.7063 202.262C22.3288 203.368 28.0322 204.013 33.7597 204.191L42.0372 204.655C40.4903 197.823 41.262 190.671 44.2303 184.326 51.5463 167.891 70.8005 160.498 87.2358 167.814 99.0175 173.059 106.596 184.76 106.562 197.656 106.563 201.021 106.041 204.365 105.016 207.57L228.422 207.57C222.853 190.401 232.257 171.97 249.426 166.401 266.594 160.833 285.026 170.237 290.594 187.406 292.269 192.569 292.631 198.068 291.648 203.407L323.125 203.407 323.125 185.133C323.116 181.604 321.483 178.276 318.697 176.11Z" stroke="#FFFFFF" stroke-width="3.4375" fill="#FFFFFF" transform="matrix(1 0 0 1.21515 1606 1118)"/><path d="M259.531 175.312C247.191 175.312 237.188 185.316 237.188 197.656 237.188 209.997 247.191 220 259.531 220 271.872 220 281.875 209.997 281.875 197.656 281.875 185.316 271.872 175.312 259.531 175.312Z" stroke="#FFFFFF" stroke-width="3.4375" fill="#FFFFFF" transform="matrix(1 0 0 1.21515 1606 1118)"/></g></g></g><g><g><g><path d="M85.1667 89.7292C85.0375 89.7292 84.9173 89.7566 84.7911 89.7673 84.6648 89.7779 84.5432 89.7292 84.4139 89.7292L33.4584 89.7292C30.9385 89.7292 28.8959 91.7719 28.8959 94.2917 28.8959 96.8116 30.9385 98.8542 33.4584 98.8542L84.4139 98.8542C84.5432 98.8542 84.6633 98.8269 84.7896 98.8162 84.9158 98.8056 85.0359 98.8542 85.1667 98.8542 87.6866 98.8558 89.728 100.9 89.7265 103.419 89.725 105.939 87.6811 107.981 85.1612 107.979 83.5022 107.978 81.9745 107.077 81.1715 105.625 79.9857 103.402 77.222 102.561 74.9987 103.746 72.7753 104.932 71.9342 107.696 73.12 109.919 73.1442 109.964 73.169 110.009 73.1947 110.054 76.8602 116.665 85.1911 119.053 91.8024 115.388 98.4136 111.722 100.802 103.391 97.1363 96.7798 94.7241 92.4292 90.1414 89.7297 85.1667 89.7292Z" stroke="#FFFFFF" stroke-width="1.52077" fill="#FFFFFF" transform="matrix(-1 1.22465e-16 -1.48467e-16 -1.21233 1606 1407)"/><path d="M25.8542 62.3542 68.4375 62.3542C77.6768 62.353 85.1658 54.8621 85.1646 45.6229 85.1634 36.3837 77.6727 28.8946 68.4333 28.8959 60.0267 28.8969 52.9267 35.1363 51.8452 43.473 51.5236 45.9727 53.2891 48.2599 55.7888 48.5815 58.2884 48.9032 60.5756 47.1377 60.8972 44.638 61.4423 40.4738 65.2599 37.5401 69.4241 38.0852 73.5883 38.6303 76.522 42.4479 75.9769 46.6121 75.4813 50.3977 72.2554 53.2289 68.4375 53.2292L25.8542 53.2292C23.3343 53.2292 21.2917 55.2718 21.2917 57.7917 21.2917 60.3116 23.3343 62.3542 25.8542 62.3542Z" stroke="#FFFFFF" stroke-width="1.52077" fill="#FFFFFF" transform="matrix(-1 1.22465e-16 -1.48467e-16 -1.21233 1606 1407)"/><path d="M114.063 34.9792C101.453 34.9892 91.24 45.2191 91.2501 57.8282 91.2516 59.734 91.4917 61.632 91.9649 63.4781 92.5914 65.9189 95.0782 67.3897 97.5189 66.7631 99.9597 66.1365 101.431 63.6498 100.804 61.209 98.9166 53.8889 103.321 46.425 110.641 44.5376 117.961 42.6503 125.425 47.0543 127.312 54.3744 129.199 61.6945 124.795 69.1584 117.475 71.0458 116.361 71.3332 115.214 71.4788 114.063 71.4792L13.6875 71.4792C11.1677 71.4792 9.12501 73.5219 9.12501 76.0417 9.12501 78.5616 11.1677 80.6042 13.6875 80.6042L114.063 80.6042C126.662 80.6042 136.875 70.3908 136.875 57.7917 136.875 45.1927 126.662 34.9792 114.063 34.9792Z" stroke="#FFFFFF" stroke-width="1.52077" fill="#FFFFFF" transform="matrix(-1 1.22465e-16 -1.48467e-16 -1.21233 1606 1407)"/></g></g></g><text fill="#FFFFFF" font-family="Eras Bold ITC,Eras Bold ITC_MSFontService,sans-serif" font-weight="700" font-size="220" transform="matrix(1 0 0 1 1374.29 1562)">CarGo</text></g></svg>